<svg width="30" height="23" viewBox="0 0 30 23" fill="none" xmlns="http://www.w3.org/2000/svg">
<g id="&#240;&#159;&#166;&#134; icon &#34;Shopping Basket&#34;">
<path id="Vector" d="M29.88 9.13446V9.92875C29.88 10.5868 29.3226 11.1202 28.635 11.1202H28.22L26.8654 20.1943C26.6902 21.3683 25.6396 22.2402 24.4004 22.2402H5.47956C4.24042 22.2402 3.18985 21.3683 3.01456 20.1943L1.66 11.1202H1.245C0.557397 11.1202 0 10.5868 0 9.92875V9.13446C0 8.47645 0.557397 7.94303 1.245 7.94303H4.73831L10.2775 0.654387C10.8168 -0.055112 11.8549 -0.212034 12.5964 0.304006C13.3378 0.820045 13.5018 1.81355 12.9625 2.5231L8.8435 7.94303H21.0365L16.9175 2.52305C16.3782 1.81355 16.5422 0.819996 17.2837 0.303956C18.025 -0.212084 19.0633 -0.0552113 19.6025 0.654337L25.1417 7.94303H28.635C29.3226 7.94303 29.88 8.47645 29.88 9.13446ZM16.185 17.8716V12.3116C16.185 11.6536 15.6276 11.1202 14.94 11.1202C14.2524 11.1202 13.695 11.6536 13.695 12.3116V17.8716C13.695 18.5297 14.2524 19.0631 14.94 19.0631C15.6276 19.0631 16.185 18.5297 16.185 17.8716ZM21.995 17.8716V12.3116C21.995 11.6536 21.4376 11.1202 20.75 11.1202C20.0624 11.1202 19.505 11.6536 19.505 12.3116V17.8716C19.505 18.5297 20.0624 19.0631 20.75 19.0631C21.4376 19.0631 21.995 18.5297 21.995 17.8716ZM10.375 17.8716V12.3116C10.375 11.6536 9.8176 11.1202 9.13 11.1202C8.4424 11.1202 7.885 11.6536 7.885 12.3116V17.8716C7.885 18.5297 8.4424 19.0631 9.13 19.0631C9.8176 19.0631 10.375 18.5297 10.375 17.8716Z" fill="black"/>
</g>
</svg>
